<svg xmlns="http://www.w3.org/2000/svg" viewBox="0 -106 512 512">
    <path d="M402 0H110C65.859 0 26.133 26.25 8.789 66.871c-2.168 5.082.191 10.957 5.27 13.125s10.957-.191 13.125-5.27C41.375 41.48 73.883 20 110 20h292c49.625 0 90 40.375 90 90s-40.375 90-90 90H215a10 10 0 0 0-7.668 3.582c-23.035 27.527-52.699 49.297-85.891 63.055 10.25-16.719 17.246-35.277 20.617-54.949a10 10 0 0 0-2.215-8.133 9.99 9.99 0 0 0-7.645-3.555H110c-36.117 0-68.625-21.48-82.816-54.727-2.168-5.082-8.047-7.437-13.125-5.27a10 10 0 0 0-5.27 13.121C26.133 193.75 65.859 219.988 110 219.988h9.813c-10.098 38.457-36.367 62.273-36.883 62.941a9.99 9.99 0 0 0-1.277 12.574 10 10 0 0 0 12.063 3.781c18.527-9.266 75.465-21.359 125.895-79.285H402c60.652 0 110-49.348 110-110S462.652 0 402 0zM20 110a10 10 0 1 1-20 0 10 10 0 1 1 20 0zm0 0"/>
</svg>
