<svg xmlns="http://www.w3.org/2000/svg" viewBox="0 0 512 512">
    <path d="M407.003 324a19.96 19.96 0 0 0-3.667.339l-9.228 1.721c-31.811 5.932-64.348 8.94-96.707 8.94h-80.795a528.82 528.82 0 0 1-96.703-8.939l-9.233-1.722c-1.209-.226-2.437-.339-3.666-.339-24.813 0-45 20.187-45 45 0 23.722 7.738 49.866 20.699 69.934C99.391 464.771 123.292 479 150.004 479c23.815 0 43.534-8.535 58.61-25.366 12.076-13.482 19.417-30.213 25.895-44.974 9.75-22.216 14.902-31.185 22.663-33.197 8.504 2.037 13.88 11.193 23.891 33.922 6.447 14.637 13.754 31.226 25.75 44.559C321.771 470.57 341.35 479 365.004 479c60.099 0 87-49.723 87-99v-11c0-24.813-20.186-45-45.001-45zm-209.122 68.586C184.872 422.229 176.235 439 150.004 439c-29.739 0-48-40.771-48-70a5.01 5.01 0 0 1 3.857-4.868l6.709 1.251a569.16 569.16 0 0 0 93.465 9.518c-2.932 5.786-5.563 11.783-8.154 17.685zM412.004 380c0 13.841-3.39 59-47 59-25.927 0-34.469-16.527-47.334-45.738-2.703-6.137-5.45-12.375-8.541-18.384 30.932-.644 61.932-3.83 92.314-9.496l6.704-1.25a5.01 5.01 0 0 1 3.857 4.868v11zm99.355-130.997c-2.758-10.687-13.659-17.115-24.355-14.368-.792.204-80.889 20.365-226 20.365-61.725 0-113.465-3.648-152.663-7.865 3.58-15.653 12.507-52.18 25.489-88.384C158.103 91.061 179.304 73 188.004 73c3.431 0 11.395 1.388 26.183 10.684 25.776 16.203 59.255 16.321 85.291.301C316.829 73.308 324.219 73 325.004 73c10.123 0 34.351 22.537 60.943 107.006 3.316 10.535 14.546 16.386 25.083 13.071s16.387-14.547 13.071-25.083c-11.105-35.271-22.997-63.976-35.35-85.315C369.67 49.714 348.222 33 325.004 33c-12.781 0-27.988 5.534-46.488 16.918-13.165 8.098-30.06 8.061-43.041-.099C217.471 38.501 201.943 33 188.004 33c-20.818 0-40.256 13.425-57.772 39.902-11.749 17.759-23.206 42.099-34.053 72.347-15.001 41.833-24.659 83.057-27.721 96.888-28.158-4.066-43.601-7.543-43.968-7.627A20 20 0 0 0 .517 249.503c-2.485 10.763 4.227 21.501 14.99 23.985 3.807.878 94.95 21.512 245.497 21.512 150.817 0 232.612-20.756 236.02-21.64 10.684-2.77 17.094-13.67 14.335-24.357z"/>
</svg>
